# xmcd
#
# Track frame offsets:
#	150
#	17182
#	30592
#	47252
#	62707
#	76402
#	88515
#	106025
#	141065
#	153095
#
# Disc length: 2250
#
# Revision: 1
# Processed by: cddbd v1.5.2PL0 Copyright (c) Steve Scherf et al.
# Submitted via: Broken Cross Disk Manager 3.94.2201
#
DISCID=6908c80a
DTITLE=David Allen Coe - A Matter Of Life......And Death
DYEAR=1987
DGENRE=
TTITLE0=The Ten Commandments Of Love
TTITLE1=Jody Like A Melody
TTITLE2=Tanya Montana
TTITLE3=If Only Your Eyes Could Lie
TTITLE4=Need A Little Time Off For Bad Behavior
TTITLE5=Southern Star
TTITLE6=Actions Speak Louder Than Words
TTITLE7=Child Of God
TTITLE8=Wild Irish Rose
TTITLE9=A Matter Of Life...And Death
EXTD=
EXTT0=
EXTT1=
EXTT2=
EXTT3=
EXTT4=
EXTT5=
EXTT6=
EXTT7=
EXTT8=
EXTT9=
PLAYORDER=
